<svg xmlns="http://www.w3.org/2000/svg" xmlns:xlink="http://www.w3.org/1999/xlink" xmlns:lucid="lucid" width="548" height="462"><g transform="translate(-400 -224)" lucid:page-tab-id="0_0"><path d="M439.5 304.08h-8a12 12 0 0 0-12 12v251.25a12 12 0 0 0 12 12h8" stroke="#333" fill="none"/><path d="M439.5 294.08v20M459.5 304.08h-20M439.5 569.33v20M459.5 579.33h-20" stroke="#333" fill="#fff"/><path d="M460 249.07a5 5 0 0 1 5-5h130a5 5 0 0 1 5 5v126a5 5 0 0 1-5 5H465a5 5 0 0 1-5-5z" fill="#fff"/><path d="M460 284.07v-35a5 5 0 0 1 5-5h130a5 5 0 0 1 5 5v35" fill="#ced4db"/><path d="M460 249.07a5 5 0 0 1 5-5h130a5 5 0 0 1 5 5v126a5 5 0 0 1-5 5H465a5 5 0 0 1-5-5zM460 284.07h140M592 284.07v96" stroke="#282c33" fill="none"/><use xlink:href="#a" transform="matrix(1,0,0,1,470,244.0711695526569) translate(0 23.6)"/><use xlink:href="#b" transform="matrix(1,0,0,1,465,286.5711695526569) translate(0 17.1)"/><use xlink:href="#c" transform="matrix(1,0,0,1,465,318.5711695526569) translate(0 17.1)"/><use xlink:href="#d" transform="matrix(1,0,0,1,465,350.5711695526569) translate(0 17.1)"/><path d="M760 249.07a5 5 0 0 1 5-5h150a5 5 0 0 1 5 5v94a5 5 0 0 1-5 5H765a5 5 0 0 1-5-5z" fill="#fff"/><path d="M760 284.07v-35a5 5 0 0 1 5-5h150a5 5 0 0 1 5 5v35" fill="#ced4db"/><path d="M760 249.07a5 5 0 0 1 5-5h150a5 5 0 0 1 5 5v94a5 5 0 0 1-5 5H765a5 5 0 0 1-5-5zM760 284.07h160M912 284.07v64" stroke="#282c33" fill="none"/><use xlink:href="#e" transform="matrix(1,0,0,1,770,244.0711695526569) translate(0 23.6)"/><use xlink:href="#f" transform="matrix(1,0,0,1,765,286.5711695526569) translate(0 17.1)"/><use xlink:href="#c" transform="matrix(1,0,0,1,765,318.5711695526569) translate(0 17.1)"/><path d="M460 496.2a5 5 0 0 1 5-5h137a5 5 0 0 1 5 5v126a5 5 0 0 1-5 5H465a5 5 0 0 1-5-5z" fill="#fff"/><path d="M460 531.2v-35a5 5 0 0 1 5-5h137a5 5 0 0 1 5 5v35" fill="#ced4db"/><path d="M460 496.2a5 5 0 0 1 5-5h137a5 5 0 0 1 5 5v126a5 5 0 0 1-5 5H465a5 5 0 0 1-5-5zM460 531.2h147M592 531.2v96" stroke="#282c33" fill="none"/><use xlink:href="#g" transform="matrix(1,0,0,1,470,491.19216975436757) translate(0 23.6)"/><use xlink:href="#h" transform="matrix(1,0,0,1,465,533.6921697543676) translate(0 17.1)"/><use xlink:href="#i" transform="matrix(1,0,0,1,465,565.6921697543676) translate(0 17.1)"/><use xlink:href="#j" transform="matrix(1,0,0,1,465,597.6921697543676) translate(0 17.1)"/><path d="M760 565a5 5 0 0 1 5-5h150a5 5 0 0 1 5 5v94a5 5 0 0 1-5 5H765a5 5 0 0 1-5-5z" fill="#fff"/><path d="M760 600v-35a5 5 0 0 1 5-5h150a5 5 0 0 1 5 5v35" fill="#cfe4ff"/><path d="M760 565a5 5 0 0 1 5-5h150a5 5 0 0 1 5 5v94a5 5 0 0 1-5 5H765a5 5 0 0 1-5-5zM760 600h160M916 600v64" stroke="#282c33" fill="none"/><use xlink:href="#k" transform="matrix(1,0,0,1,770,560) translate(0 23.6)"/><use xlink:href="#l" transform="matrix(1,0,0,1,765,602.5) translate(0 17.1)"/><use xlink:href="#c" transform="matrix(1,0,0,1,765,634.5) translate(0 17.1)"/><path d="M627.5 547.1h44a12 12 0 0 0 12-12V312.08a12 12 0 0 1 12-12h44.6" stroke="#3a414a" fill="none"/><path d="M627.5 557.1v-20M607.5 547.1h20" stroke="#3a414a" fill="#fff"/><path d="M759.28 310.07l-20-10 20-10" stroke="#3a414a" fill="#fff" fill-opacity="0"/><path d="M759.28 300.07h-20" stroke="#3a414a" fill="#fff"/><path d="M607 581.46a8 8 0 0 1 8-8h10a8 8 0 0 1 8 8v19.47a8 8 0 0 1-8 8h-10a8 8 0 0 1-8-8z" stroke="#000" stroke-opacity="0" fill="#fff" fill-opacity="0"/><use xlink:href="#m" transform="matrix(1,0,0,1,612,578.454921298218) translate(3 16.025)"/><path d="M720 268a8 8 0 0 1 8-8h10a8 8 0 0 1 8 8v10.67a8 8 0 0 1-8 8h-10a8 8 0 0 1-8-8z" stroke="#000" stroke-opacity="0" fill="#fff" fill-opacity="0"/><use xlink:href="#m" transform="matrix(1,0,0,1,725,265) translate(3 15.4625)"/><path d="M420 288a8 8 0 0 1 8-8h24a8 8 0 0 1 8 8v8.07a8 8 0 0 1-8 8h-24a8 8 0 0 1-8-8z" stroke="#000" stroke-opacity="0" fill="#fff" fill-opacity="0"/><use xlink:href="#m" transform="matrix(1,0,0,1,425,285) translate(10.004999999999999 14.4)"/><path d="M427 548.72a8 8 0 0 1 8-8h10a8 8 0 0 1 8 8v10.67a8 8 0 0 1-8 8h-10a8 8 0 0 1-8-8z" stroke="#000" stroke-opacity="0" fill="#fff" fill-opacity="0"/><use xlink:href="#n" transform="matrix(1,0,0,1,432,545.7244424066392) translate(1.5249999999999995 15.4625)"/><path d="M840 388.07a8 8 0 0 1 8-8h10a8 8 0 0 1 8 8v10.67a8 8 0 0 1-8 8h-10a8 8 0 0 1-8-8z" stroke="#000" stroke-opacity="0" fill="#fff" fill-opacity="0"/><use xlink:href="#m" transform="matrix(1,0,0,1,845,385.0711695526569) translate(3 15.4625)"/><path d="M840 528a8 8 0 0 1 8-8h10a8 8 0 0 1 8 8v10.67a8 8 0 0 1-8 8h-10a8 8 0 0 1-8-8z" stroke="#000" stroke-opacity="0" fill="#fff" fill-opacity="0"/><use xlink:href="#n" transform="matrix(1,0,0,1,845,525) translate(1.5249999999999995 15.4625)"/><path d="M840 539.5V367.98" stroke="#000" fill="none"/><path d="M850 539.5h-20M840 559.5v-20" stroke="#000" fill="#fff"/><path d="M850 348.8l-10 20-10-20" stroke="#000" fill="#fff" fill-opacity="0"/><path d="M840 348.8v20" stroke="#000" fill="#fff"/><defs><path fill="#333" d="M194-120c59 52 2 134-86 124-53-6-90-18-98-63l31-7c8 30 29 43 70 43 46 0 84-17 71-62-32-43-135-20-137-98-3-89 178-90 191-16l-30 9c-8-48-127-53-127 5 0 53 81 35 115 65" id="o"/><path fill="#333" d="M51-54c-9 22 5 41 31 30L79-1C43 14 10-4 19-52l22-115H19l5-23h22l19-43h21l-9 43h35l-4 23H73" id="p"/><path fill="#333" d="M165-48c-4 18 1 34 23 27l-3 20c-29 8-62 0-52-35h-2C116-14 99 4 63 4 30 4 8-16 8-49c0-68 71-67 138-67 10-26 0-56-31-54-26 1-42 9-47 31l-32-5c8-67 160-71 144 15-5 28-9 54-15 81zM42-50c3 52 80 24 89-6 7-12 7-24 11-38-47 1-103-4-100 44" id="q"/><path fill="#333" d="M44-68c0 29 11 47 38 47 30 0 42-19 51-41l28 9C148-21 126 4 82 4 31 4 10-29 12-85c3-77 74-140 146-93 12 8 15 23 18 40l-31 5c-1-22-13-36-36-36-52 0-65 49-65 101" id="r"/><path fill="#333" d="M51-231l6-30h31l-6 30H51zM33 24C28 60 2 84-40 72c3-12-1-29 18-22C-5 49-1 37 2 19l41-209h32" id="s"/><path fill="#333" d="M111-194c62-3 86 47 72 106H45c-7 38 6 69 45 68 27-1 43-14 53-32l24 11C152-15 129 4 87 4 38 3 12-23 12-71c0-70 32-119 99-123zm44 81c14-66-71-72-95-28-4 8-8 17-11 28h106" id="t"/><g id="a"><use transform="matrix(0.05,0,0,0.05,0,0)" xlink:href="#o"/><use transform="matrix(0.05,0,0,0.05,12,0)" xlink:href="#p"/><use transform="matrix(0.05,0,0,0.05,17,0)" xlink:href="#q"/><use transform="matrix(0.05,0,0,0.05,27,0)" xlink:href="#r"/><use transform="matrix(0.05,0,0,0.05,36,0)" xlink:href="#s"/><use transform="matrix(0.05,0,0,0.05,39.95,0)" xlink:href="#t"/></g><path fill="#333" d="M14 0l48-248h34L48 0H14" id="u"/><path fill="#333" d="M248-139C247-14 144 9 11 0l48-248c105-6 190 8 189 109zm-34 0c1-70-52-87-126-82L50-27c98 7 163-21 164-112" id="v"/><path fill="#333" d="M-28 44V31h207v13H-28" id="w"/><path fill="#333" d="M55-144c13 50 104 24 104 88C159 21 15 23 1-39l26-10c6 40 102 42 102-4-13-50-104-23-104-87 0-71 143-71 148-8l-29 4c-5-35-85-37-89 0" id="x"/><path fill="#333" d="M50-231l6-30h32l-6 30H50zM6 0l37-190h31L37 0H6" id="y"/><g id="b"><use transform="matrix(0.05,0,0,0.05,0,0)" xlink:href="#u"/><use transform="matrix(0.05,0,0,0.05,5,0)" xlink:href="#v"/><use transform="matrix(0.05,0,0,0.05,17.950000000000003,0)" xlink:href="#w"/><use transform="matrix(0.05,0,0,0.05,27.950000000000003,0)" xlink:href="#x"/><use transform="matrix(0.05,0,0,0.05,36.95,0)" xlink:href="#p"/><use transform="matrix(0.05,0,0,0.05,41.95,0)" xlink:href="#q"/><use transform="matrix(0.05,0,0,0.05,51.95,0)" xlink:href="#r"/><use transform="matrix(0.05,0,0,0.05,60.95,0)" xlink:href="#s"/><use transform="matrix(0.05,0,0,0.05,64.9,0)" xlink:href="#y"/></g><path fill="#333" d="M173 0L80-213 41 0H11l48-248h37l94 214 40-214h30L212 0h-39" id="z"/><path fill="#333" d="M-8 0l5-24 140-142H31l5-24h145l-5 24L36-24h119l-5 24H-8" id="A"/><path fill="#333" d="M188 0h-37l-8-164L71 0H34L18-190h31l8 164 75-164h34l8 164 74-164h31" id="B"/><g id="c"><use transform="matrix(0.05,0,0,0.05,0,0)" xlink:href="#z"/><use transform="matrix(0.05,0,0,0.05,12.950000000000001,0)" xlink:href="#q"/><use transform="matrix(0.05,0,0,0.05,22.950000000000003,0)" xlink:href="#A"/><use transform="matrix(0.05,0,0,0.05,31.950000000000003,0)" xlink:href="#B"/><use transform="matrix(0.05,0,0,0.05,44.900000000000006,0)" xlink:href="#q"/></g><path fill="#333" d="M11 0l48-248h34L50-27h125l-5 27H11" id="C"/><path fill="#333" d="M30-147c31-64 166-65 159 27C183-49 158 1 86 4 9 8 1-88 30-147zM88-20c53 0 68-48 68-100 0-31-11-51-44-50-52 1-68 46-68 97 0 32 13 53 44 53" id="D"/><path fill="#333" d="M127 0L80-88 50-66 37 0H6l51-261h31L57-100l99-90h39l-93 82L161 0h-34" id="E"/><path fill="#333" d="M6 0l50-261h32L37 0H6" id="F"/><g id="d"><use transform="matrix(0.05,0,0,0.05,0,0)" xlink:href="#C"/><use transform="matrix(0.05,0,0,0.05,10,0)" xlink:href="#D"/><use transform="matrix(0.05,0,0,0.05,20,0)" xlink:href="#E"/><use transform="matrix(0.05,0,0,0.05,29,0)" xlink:href="#q"/><use transform="matrix(0.05,0,0,0.05,39,0)" xlink:href="#F"/><use transform="matrix(0.05,0,0,0.05,42.95,0)" xlink:href="#y"/><use transform="matrix(0.05,0,0,0.05,46.900000000000006,0)" xlink:href="#A"/><use transform="matrix(0.05,0,0,0.05,55.900000000000006,0)" xlink:href="#q"/><use transform="matrix(0.05,0,0,0.05,65.9,0)" xlink:href="#r"/><use transform="matrix(0.05,0,0,0.05,74.9,0)" xlink:href="#s"/><use transform="matrix(0.05,0,0,0.05,78.85000000000001,0)" xlink:href="#q"/></g><path fill="#333" d="M238-179c0 84-86 86-175 82L45 0H11l48-248c82 0 179-12 179 69zm-34 1c0-53-64-42-116-43l-19 98c63 0 135 9 135-55" id="G"/><path fill="#333" d="M66-151c12-25 30-51 66-40l-6 26C45-176 58-65 38 0H6l36-190h30" id="H"/><path fill="#333" d="M248-111c6-24 9-61-24-58-72 9-57 108-77 169h-31l26-142c3-37-50-30-64-10C52-115 50-51 37 0H6l36-190h30c-1 10-6 24-4 32 13-43 101-52 105 5 13-22 29-41 61-41 90 0 28 129 23 194h-31" id="I"/><path fill="#333" d="M198-190L69 30C53 58 25 83-20 72c4-11-1-27 19-22 33-1 43-29 59-52L20-190h32L79-34l84-156h35" id="J"/><g id="e"><use transform="matrix(0.05,0,0,0.05,0,0)" xlink:href="#G"/><use transform="matrix(0.05,0,0,0.05,12,0)" xlink:href="#q"/><use transform="matrix(0.05,0,0,0.05,22,0)" xlink:href="#H"/><use transform="matrix(0.05,0,0,0.05,27.950000000000003,0)" xlink:href="#q"/><use transform="matrix(0.05,0,0,0.05,37.95,0)" xlink:href="#I"/><use transform="matrix(0.05,0,0,0.05,52.900000000000006,0)" xlink:href="#t"/><use transform="matrix(0.05,0,0,0.05,62.900000000000006,0)" xlink:href="#p"/><use transform="matrix(0.05,0,0,0.05,67.9,0)" xlink:href="#H"/><use transform="matrix(0.05,0,0,0.05,73.85000000000001,0)" xlink:href="#J"/></g><path fill="#333" d="M67-162c32-53 139-36 121 50C175-51 163 2 97 4 68 4 52-11 42-31 38 6 28 39 22 75H-9l50-265h29c-1 10 0 20-3 28zm89 36c0-26-10-43-35-43-54 0-67 50-69 103-1 29 14 45 42 46 53 0 62-58 62-106" id="K"/><path fill="#333" d="M67 3c-93-2-31-127-26-193h32L48-50c-3 39 53 32 70 12 30-34 30-101 43-152h32L157 0h-30c1-10 6-24 4-33-14 20-29 37-64 36" id="L"/><g id="f"><use transform="matrix(0.05,0,0,0.05,0,0)" xlink:href="#u"/><use transform="matrix(0.05,0,0,0.05,5,0)" xlink:href="#v"/><use transform="matrix(0.05,0,0,0.05,17.950000000000003,0)" xlink:href="#w"/><use transform="matrix(0.05,0,0,0.05,27.950000000000003,0)" xlink:href="#K"/><use transform="matrix(0.05,0,0,0.05,37.95,0)" xlink:href="#q"/><use transform="matrix(0.05,0,0,0.05,47.95,0)" xlink:href="#H"/><use transform="matrix(0.05,0,0,0.05,53.900000000000006,0)" xlink:href="#q"/><use transform="matrix(0.05,0,0,0.05,63.900000000000006,0)" xlink:href="#I"/><use transform="matrix(0.05,0,0,0.05,78.85000000000001,0)" xlink:href="#t"/><use transform="matrix(0.05,0,0,0.05,88.85000000000001,0)" xlink:href="#p"/><use transform="matrix(0.05,0,0,0.05,93.85000000000001,0)" xlink:href="#H"/><use transform="matrix(0.05,0,0,0.05,99.80000000000001,0)" xlink:href="#L"/></g><g id="g"><use transform="matrix(0.05,0,0,0.05,0,0)" xlink:href="#G"/><use transform="matrix(0.05,0,0,0.05,12,0)" xlink:href="#D"/><use transform="matrix(0.05,0,0,0.05,22,0)" xlink:href="#I"/><use transform="matrix(0.05,0,0,0.05,36.95,0)" xlink:href="#y"/><use transform="matrix(0.05,0,0,0.05,40.900000000000006,0)" xlink:href="#q"/><use transform="matrix(0.05,0,0,0.05,50.900000000000006,0)" xlink:href="#H"/><use transform="matrix(0.05,0,0,0.05,56.85,0)" xlink:href="#J"/></g><g id="h"><use transform="matrix(0.05,0,0,0.05,0,0)" xlink:href="#u"/><use transform="matrix(0.05,0,0,0.05,5,0)" xlink:href="#v"/><use transform="matrix(0.05,0,0,0.05,17.950000000000003,0)" xlink:href="#w"/><use transform="matrix(0.05,0,0,0.05,27.950000000000003,0)" xlink:href="#K"/><use transform="matrix(0.05,0,0,0.05,37.95,0)" xlink:href="#D"/><use transform="matrix(0.05,0,0,0.05,47.95,0)" xlink:href="#I"/><use transform="matrix(0.05,0,0,0.05,62.900000000000006,0)" xlink:href="#y"/><use transform="matrix(0.05,0,0,0.05,66.85000000000001,0)" xlink:href="#q"/><use transform="matrix(0.05,0,0,0.05,76.85000000000001,0)" xlink:href="#H"/><use transform="matrix(0.05,0,0,0.05,82.80000000000001,0)" xlink:href="#L"/></g><path fill="#333" d="M247 0h-39l-15-214-24 57L95 0H56L31-248h35L82-30l101-218h33l16 218 101-218h35" id="M"/><g id="i"><use transform="matrix(0.05,0,0,0.05,0,0)" xlink:href="#M"/><use transform="matrix(0.05,0,0,0.05,16.599999999999998,0)" xlink:href="#q"/><use transform="matrix(0.05,0,0,0.05,26.599999999999994,0)" xlink:href="#H"/><use transform="matrix(0.05,0,0,0.05,32.55,0)" xlink:href="#p"/><use transform="matrix(0.05,0,0,0.05,37.55,0)" xlink:href="#D"/><use transform="matrix(0.05,0,0,0.05,47.55,0)" xlink:href="#x"/><use transform="matrix(0.05,0,0,0.05,56.54999999999999,0)" xlink:href="#r"/></g><g id="j"><use transform="matrix(0.05,0,0,0.05,0,0)" xlink:href="#v"/><use transform="matrix(0.05,0,0,0.05,12.950000000000001,0)" xlink:href="#q"/><use transform="matrix(0.05,0,0,0.05,22.950000000000003,0)" xlink:href="#p"/><use transform="matrix(0.05,0,0,0.05,27.950000000000003,0)" xlink:href="#q"/></g><path fill="#333" d="M29-66c0 49 71 55 82 11 13-52 22-111 33-165H93l5-28h85L149-74C151 11 7 37-1-60" id="N"/><path fill="#333" d="M133-28C103 26-5 8 13-77c13-62 24-115 90-117 29-1 46 15 56 35l19-102h32L160 0h-30zM45-64c-2 27 10 43 35 43 54-1 69-50 69-103 0-29-15-46-42-46-53-1-58 58-62 106" id="O"/><path fill="#333" d="M67-158c22-48 132-52 116 29L158 0h-32l25-140c3-38-53-32-70-12C52-117 51-52 38 0H6l36-190h30" id="P"/><g id="k"><use transform="matrix(0.05,0,0,0.05,0,0)" xlink:href="#N"/><use transform="matrix(0.05,0,0,0.05,9,0)" xlink:href="#t"/><use transform="matrix(0.05,0,0,0.05,19,0)" xlink:href="#O"/><use transform="matrix(0.05,0,0,0.05,29,0)" xlink:href="#P"/><use transform="matrix(0.05,0,0,0.05,39,0)" xlink:href="#D"/><use transform="matrix(0.05,0,0,0.05,49,0)" xlink:href="#x"/><use transform="matrix(0.05,0,0,0.05,58,0)" xlink:href="#p"/><use transform="matrix(0.05,0,0,0.05,63,0)" xlink:href="#E"/><use transform="matrix(0.05,0,0,0.05,72,0)" xlink:href="#y"/></g><g id="l"><use transform="matrix(0.05,0,0,0.05,0,0)" xlink:href="#u"/><use transform="matrix(0.05,0,0,0.05,5,0)" xlink:href="#v"/><use transform="matrix(0.05,0,0,0.05,17.950000000000003,0)" xlink:href="#w"/><use transform="matrix(0.05,0,0,0.05,27.950000000000003,0)" xlink:href="#s"/><use transform="matrix(0.05,0,0,0.05,31.900000000000002,0)" xlink:href="#t"/><use transform="matrix(0.05,0,0,0.05,41.900000000000006,0)" xlink:href="#O"/><use transform="matrix(0.05,0,0,0.05,51.900000000000006,0)" xlink:href="#P"/><use transform="matrix(0.05,0,0,0.05,61.900000000000006,0)" xlink:href="#D"/><use transform="matrix(0.05,0,0,0.05,71.9,0)" xlink:href="#x"/><use transform="matrix(0.05,0,0,0.05,80.9,0)" xlink:href="#p"/><use transform="matrix(0.05,0,0,0.05,85.9,0)" xlink:href="#E"/><use transform="matrix(0.05,0,0,0.05,94.9,0)" xlink:href="#y"/></g><path d="M27 0v-27h64v-190l-56 39v-29l58-41h29v221h61V0H27" id="Q"/><use transform="matrix(0.05,0,0,0.05,0,0)" xlink:href="#Q" id="m"/><path d="M190 0L58-211 59 0H30v-248h39L202-35l-2-213h31V0h-41" id="R"/><use transform="matrix(0.05,0,0,0.05,0,0)" xlink:href="#R" id="n"/></defs></g></svg>