<svg xmlns="http://www.w3.org/2000/svg" xmlns:xlink="http://www.w3.org/1999/xlink" xmlns:lucid="lucid" width="714.34" height="527.4"><g transform="translate(-360 -160)" lucid:page-tab-id="0_0"><path d="M404.64 236h-8a12 12 0 0 0-12 12v295.4a12 12 0 0 0 12 12h8" stroke="#333" fill="none"/><path d="M404.64 226v20M424.64 236h-20M404.64 545.4v20M424.64 555.4h-20" stroke="#333" fill="#fff"/><path d="M425.14 185a5 5 0 0 1 5-5H621.2a5 5 0 0 1 5 5v190a5 5 0 0 1-5 5H430.15a5 5 0 0 1-5-5z" fill="#fff"/><path d="M425.14 220v-35a5 5 0 0 1 5-5H621.2a5 5 0 0 1 5 5v35" fill="#ced4db"/><path d="M425.14 185a5 5 0 0 1 5-5H621.2a5 5 0 0 1 5 5v190a5 5 0 0 1-5 5H430.15a5 5 0 0 1-5-5zM425.14 220H626.2M557.14 220v160" stroke="#282c33" fill="none"/><use xlink:href="#a" transform="matrix(1,0,0,1,435.138636512488,180) translate(0 23.6)"/><use xlink:href="#b" transform="matrix(1,0,0,1,430.138636512488,222.5) translate(0 17.1)"/><use xlink:href="#c" transform="matrix(1,0,0,1,562.138636512488,222.5) translate(0 17.1)"/><use xlink:href="#d" transform="matrix(1,0,0,1,562.138636512488,222.5) translate(5 17.1)"/><use xlink:href="#e" transform="matrix(1,0,0,1,430.138636512488,254.5) translate(0 17.1)"/><use xlink:href="#f" transform="matrix(1,0,0,1,430.138636512488,286.5) translate(0 17.1)"/><use xlink:href="#g" transform="matrix(1,0,0,1,430.138636512488,318.5) translate(0 17.1)"/><use xlink:href="#h" transform="matrix(1,0,0,1,430.138636512488,350.5) translate(0 17.1)"/><path d="M835.5 185a5 5 0 0 1 5-5h208.84a5 5 0 0 1 5 5v126a5 5 0 0 1-5 5H840.5a5 5 0 0 1-5-5z" fill="#fff"/><path d="M835.5 220v-35a5 5 0 0 1 5-5h208.84a5 5 0 0 1 5 5v35" fill="#ced4db"/><path d="M835.5 185a5 5 0 0 1 5-5h208.84a5 5 0 0 1 5 5v126a5 5 0 0 1-5 5H840.5a5 5 0 0 1-5-5zM835.5 220h218.84M987.5 220v96" stroke="#282c33" fill="none"/><use xlink:href="#i" transform="matrix(1,0,0,1,845.4898775351057,180.00000000000003) translate(0 23.6)"/><use xlink:href="#j" transform="matrix(1,0,0,1,840.4898775351057,222.50000000000003) translate(0 17.1)"/><use xlink:href="#c" transform="matrix(1,0,0,1,992.4898775351057,222.50000000000003) translate(0 17.1)"/><use xlink:href="#d" transform="matrix(1,0,0,1,992.4898775351057,222.50000000000003) translate(5 17.1)"/><use xlink:href="#e" transform="matrix(1,0,0,1,840.4898775351057,254.50000000000003) translate(0 17.1)"/><use xlink:href="#k" transform="matrix(1,0,0,1,840.4898775351057,286.5) translate(0 17.1)"/><use xlink:href="#c" transform="matrix(1,0,0,1,992.4898775351057,286.5) translate(0 17.1)"/><use xlink:href="#l" transform="matrix(1,0,0,1,992.4898775351057,286.5) translate(5 17.1)"/><path d="M425.14 472.4a5 5 0 0 1 5-5H639a5 5 0 0 1 5 5v190a5 5 0 0 1-5 5H430.13a5 5 0 0 1-5-5z" fill="#fff"/><path d="M425.14 507.4v-35a5 5 0 0 1 5-5H639a5 5 0 0 1 5 5v35" fill="#ced4db"/><path d="M425.14 472.4a5 5 0 0 1 5-5H639a5 5 0 0 1 5 5v190a5 5 0 0 1-5 5H430.13a5 5 0 0 1-5-5zM425.14 507.4H644M557.14 507.4v160" stroke="#282c33" fill="none"/><use xlink:href="#m" transform="matrix(1,0,0,1,435.13863651248795,467.4007708135332) translate(0 23.6)"/><use xlink:href="#n" transform="matrix(1,0,0,1,430.13863651248795,509.9007708135332) translate(0 17.1)"/><use xlink:href="#c" transform="matrix(1,0,0,1,562.1386365124879,509.9007708135332) translate(0 17.1)"/><use xlink:href="#d" transform="matrix(1,0,0,1,562.1386365124879,509.9007708135332) translate(5 17.1)"/><use xlink:href="#b" transform="matrix(1,0,0,1,430.13863651248795,541.9007708135332) translate(0 17.1)"/><use xlink:href="#c" transform="matrix(1,0,0,1,562.1386365124879,541.9007708135332) translate(0 17.1)"/><use xlink:href="#l" transform="matrix(1,0,0,1,562.1386365124879,541.9007708135332) translate(5 17.1)"/><use xlink:href="#j" transform="matrix(1,0,0,1,430.13863651248795,573.9007708135332) translate(0 17.1)"/><use xlink:href="#c" transform="matrix(1,0,0,1,562.1386365124879,573.9007708135332) translate(0 17.1)"/><use xlink:href="#l" transform="matrix(1,0,0,1,562.1386365124879,573.9007708135332) translate(5 17.1)"/><use xlink:href="#o" transform="matrix(1,0,0,1,430.13863651248795,605.9007708135332) translate(0 17.1)"/><use xlink:href="#p" transform="matrix(1,0,0,1,430.13863651248795,637.9007708135332) translate(0 17.1)"/><path d="M835.5 552.42a5 5 0 0 1 5-5h208.84a5 5 0 0 1 5 5v94a5 5 0 0 1-5 5H840.5a5 5 0 0 1-5-5z" fill="#fff"/><path d="M835.5 587.42v-35a5 5 0 0 1 5-5h208.84a5 5 0 0 1 5 5v35" fill="#cfe4ff"/><path d="M835.5 552.42a5 5 0 0 1 5-5h208.84a5 5 0 0 1 5 5v94a5 5 0 0 1-5 5H840.5a5 5 0 0 1-5-5zM835.5 587.42h218.84M987.5 587.42v64" stroke="#282c33" fill="none"/><use xlink:href="#q" transform="matrix(1,0,0,1,845.4898775351057,547.42401219917) translate(0 23.6)"/><use xlink:href="#k" transform="matrix(1,0,0,1,840.4898775351057,589.92401219917) translate(0 17.1)"/><use xlink:href="#c" transform="matrix(1,0,0,1,992.4898775351057,589.92401219917) translate(0 17.1)"/><use xlink:href="#d" transform="matrix(1,0,0,1,992.4898775351057,589.92401219917) translate(5 17.1)"/><use xlink:href="#e" transform="matrix(1,0,0,1,840.4898775351057,621.92401219917) translate(0 17.1)"/><path d="M664.5 587.4h63.24a12 12 0 0 0 12-12V248a12 12 0 0 1 12-12h63.84" stroke="#3a414a" fill="none"/><path d="M664.5 597.4v-20M644.5 587.4h20" stroke="#3a414a" fill="#fff"/><path d="M834.77 246l-20-10 20-10" stroke="#3a414a" fill="#fff" fill-opacity="0"/><path d="M834.77 236h-20" stroke="#3a414a" fill="#fff"/><path d="M944.92 526.92v-191" stroke="#3a414a" fill="none"/><path d="M954.92 526.92h-20M944.92 546.92v-20" stroke="#3a414a" fill="#fff"/><path d="M954.92 316.72l-10 20-10-20" stroke="#3a414a" fill="#fff" fill-opacity="0"/><path d="M944.92 316.72v20" stroke="#3a414a" fill="#fff"/><path d="M644 555.42a8 8 0 0 1 8-8h19.56a8 8 0 0 1 8 8v25.26a8 8 0 0 1-8 8H652a8 8 0 0 1-8-8z" stroke="#000" stroke-opacity="0" fill="#fff" fill-opacity="0"/><use xlink:href="#r" transform="matrix(1,0,0,1,648.9926317245508,552.42401219917) translate(8 20.4)"/><path d="M789.74 206.53a8 8 0 0 1 8-8h19.56a8 8 0 0 1 8 8v15a8 8 0 0 1-8 8h-19.56a8 8 0 0 1-8-8z" stroke="#000" stroke-opacity="0" fill="#fff" fill-opacity="0"/><use xlink:href="#r" transform="matrix(1,0,0,1,794.7412786965933,203.52516841946962) translate(8 15.775)"/><path d="M380 209.54a8 8 0 0 1 8-8h38.7a8 8 0 0 1 8 8v12a8 8 0 0 1-8 8H388a8 8 0 0 1-8-8z" stroke="#000" stroke-opacity="0" fill="#fff" fill-opacity="0"/><use xlink:href="#r" transform="matrix(1,0,0,1,385,206.5437215598415) translate(17.5 15.525)"/><path d="M389.57 528a8 8 0 0 1 8-8h19.57a8 8 0 0 1 8 8v15a8 8 0 0 1-8 8h-19.56a8 8 0 0 1-8-8z" stroke="#000" stroke-opacity="0" fill="#fff" fill-opacity="0"/><g><use xlink:href="#s" transform="matrix(1,0,0,1,394.57486229052773,525) translate(6.5249999999999995 15.775)"/></g><path d="M940 324a8 8 0 0 1 8-8h19.56a8 8 0 0 1 8 8v15a8 8 0 0 1-8 8H948a8 8 0 0 1-8-8z" stroke="#000" stroke-opacity="0" fill="#fff" fill-opacity="0"/><g><use xlink:href="#r" transform="matrix(1,0,0,1,945.0000000000001,321) translate(8 15.775)"/></g><path d="M940 524.4a8 8 0 0 1 8-8h19.56a8 8 0 0 1 8 8v15.02a8 8 0 0 1-8 8H948a8 8 0 0 1-8-8z" stroke="#000" stroke-opacity="0" fill="#fff" fill-opacity="0"/><g><use xlink:href="#s" transform="matrix(1,0,0,1,945,521.4107816409744) translate(6.5249999999999995 15.775)"/></g><defs><path fill="#333" d="M194-120c59 52 2 134-86 124-53-6-90-18-98-63l31-7c8 30 29 43 70 43 46 0 84-17 71-62-32-43-135-20-137-98-3-89 178-90 191-16l-30 9c-8-48-127-53-127 5 0 53 81 35 115 65" id="t"/><path fill="#333" d="M51-54c-9 22 5 41 31 30L79-1C43 14 10-4 19-52l22-115H19l5-23h22l19-43h21l-9 43h35l-4 23H73" id="u"/><path fill="#333" d="M165-48c-4 18 1 34 23 27l-3 20c-29 8-62 0-52-35h-2C116-14 99 4 63 4 30 4 8-16 8-49c0-68 71-67 138-67 10-26 0-56-31-54-26 1-42 9-47 31l-32-5c8-67 160-71 144 15-5 28-9 54-15 81zM42-50c3 52 80 24 89-6 7-12 7-24 11-38-47 1-103-4-100 44" id="v"/><path fill="#333" d="M44-68c0 29 11 47 38 47 30 0 42-19 51-41l28 9C148-21 126 4 82 4 31 4 10-29 12-85c3-77 74-140 146-93 12 8 15 23 18 40l-31 5c-1-22-13-36-36-36-52 0-65 49-65 101" id="w"/><path fill="#333" d="M51-231l6-30h31l-6 30H51zM33 24C28 60 2 84-40 72c3-12-1-29 18-22C-5 49-1 37 2 19l41-209h32" id="x"/><path fill="#333" d="M111-194c62-3 86 47 72 106H45c-7 38 6 69 45 68 27-1 43-14 53-32l24 11C152-15 129 4 87 4 38 3 12-23 12-71c0-70 32-119 99-123zm44 81c14-66-71-72-95-28-4 8-8 17-11 28h106" id="y"/><g id="a"><use transform="matrix(0.05,0,0,0.05,0,0)" xlink:href="#t"/><use transform="matrix(0.05,0,0,0.05,12,0)" xlink:href="#u"/><use transform="matrix(0.05,0,0,0.05,17,0)" xlink:href="#v"/><use transform="matrix(0.05,0,0,0.05,27,0)" xlink:href="#w"/><use transform="matrix(0.05,0,0,0.05,36,0)" xlink:href="#x"/><use transform="matrix(0.05,0,0,0.05,39.95,0)" xlink:href="#y"/></g><path fill="#333" d="M14 0l48-248h34L48 0H14" id="z"/><path fill="#333" d="M248-139C247-14 144 9 11 0l48-248c105-6 190 8 189 109zm-34 0c1-70-52-87-126-82L50-27c98 7 163-21 164-112" id="A"/><path fill="#333" d="M-28 44V31h207v13H-28" id="B"/><path fill="#333" d="M55-144c13 50 104 24 104 88C159 21 15 23 1-39l26-10c6 40 102 42 102-4-13-50-104-23-104-87 0-71 143-71 148-8l-29 4c-5-35-85-37-89 0" id="C"/><path fill="#333" d="M50-231l6-30h32l-6 30H50zM6 0l37-190h31L37 0H6" id="D"/><g id="b"><use transform="matrix(0.05,0,0,0.05,0,0)" xlink:href="#z"/><use transform="matrix(0.05,0,0,0.05,5,0)" xlink:href="#A"/><use transform="matrix(0.05,0,0,0.05,17.950000000000003,0)" xlink:href="#B"/><use transform="matrix(0.05,0,0,0.05,27.950000000000003,0)" xlink:href="#C"/><use transform="matrix(0.05,0,0,0.05,36.95,0)" xlink:href="#u"/><use transform="matrix(0.05,0,0,0.05,41.95,0)" xlink:href="#v"/><use transform="matrix(0.05,0,0,0.05,51.95,0)" xlink:href="#w"/><use transform="matrix(0.05,0,0,0.05,60.95,0)" xlink:href="#x"/><use transform="matrix(0.05,0,0,0.05,64.9,0)" xlink:href="#D"/></g><path fill="#333" d="M238-179c0 84-86 86-175 82L45 0H11l48-248c82 0 179-12 179 69zm-34 1c0-53-64-42-116-43l-19 98c63 0 135 9 135-55" id="E"/><path fill="#333" d="M180 0L97-118 63-96 45 0H11l48-248h34L69-126c44-43 94-81 141-122h43L121-137 219 0h-39" id="F"/><g id="d"><use transform="matrix(0.05,0,0,0.05,0,0)" xlink:href="#E"/><use transform="matrix(0.05,0,0,0.05,12,0)" xlink:href="#F"/></g><path fill="#333" d="M173 0L80-213 41 0H11l48-248h37l94 214 40-214h30L212 0h-39" id="G"/><path fill="#333" d="M-8 0l5-24 140-142H31l5-24h145l-5 24L36-24h119l-5 24H-8" id="H"/><path fill="#333" d="M188 0h-37l-8-164L71 0H34L18-190h31l8 164 75-164h34l8 164 74-164h31" id="I"/><g id="e"><use transform="matrix(0.05,0,0,0.05,0,0)" xlink:href="#G"/><use transform="matrix(0.05,0,0,0.05,12.950000000000001,0)" xlink:href="#v"/><use transform="matrix(0.05,0,0,0.05,22.950000000000003,0)" xlink:href="#H"/><use transform="matrix(0.05,0,0,0.05,31.950000000000003,0)" xlink:href="#I"/><use transform="matrix(0.05,0,0,0.05,44.900000000000006,0)" xlink:href="#v"/></g><path fill="#333" d="M66-151c12-25 30-51 66-40l-6 26C45-176 58-65 38 0H6l36-190h30" id="J"/><g id="f"><use transform="matrix(0.05,0,0,0.05,0,0)" xlink:href="#F"/><use transform="matrix(0.05,0,0,0.05,12,0)" xlink:href="#J"/><use transform="matrix(0.05,0,0,0.05,17.95,0)" xlink:href="#v"/><use transform="matrix(0.05,0,0,0.05,27.950000000000003,0)" xlink:href="#x"/></g><path fill="#333" d="M249-183c0 48-29 72-75 77L221 0h-36l-43-103H65L45 0H11l48-248c83 2 190-17 190 65zm-34 3c0-55-74-39-127-41l-18 92c63-1 145 13 145-51" id="K"/><path fill="#333" d="M103-194c29 0 47 14 56 36 2-11 5-23 8-32h30L160-5C157 61 82 97 21 62 9 55 4 45 1 30l28-7c7 42 83 31 92-3 4-16 9-38 13-55-13 20-29 36-62 36-40 0-60-25-60-64 0-71 23-131 91-131zm4 24c-53 0-58 54-61 104-2 27 10 44 36 44 49 0 65-50 67-102 1-29-15-46-42-46" id="L"/><path fill="#333" d="M30-147c31-64 166-65 159 27C183-49 158 1 86 4 9 8 1-88 30-147zM88-20c53 0 68-48 68-100 0-31-11-51-44-50-52 1-68 46-68 97 0 32 13 53 44 53" id="M"/><path fill="#333" d="M67-158c22-48 132-52 116 29L158 0h-32l25-140c3-38-53-32-70-12C52-117 51-52 38 0H6l36-190h30" id="N"/><g id="g"><use transform="matrix(0.05,0,0,0.05,0,0)" xlink:href="#K"/><use transform="matrix(0.05,0,0,0.05,12.950000000000001,0)" xlink:href="#y"/><use transform="matrix(0.05,0,0,0.05,22.950000000000003,0)" xlink:href="#L"/><use transform="matrix(0.05,0,0,0.05,32.95,0)" xlink:href="#D"/><use transform="matrix(0.05,0,0,0.05,36.900000000000006,0)" xlink:href="#M"/><use transform="matrix(0.05,0,0,0.05,46.900000000000006,0)" xlink:href="#N"/></g><path fill="#333" d="M222 0l43-216c-8 16-17 34-26 49L143 0h-22L81-216 41 0H11l48-248h42l38 208 116-208h45L252 0h-30" id="O"/><g id="h"><use transform="matrix(0.05,0,0,0.05,0,0)" xlink:href="#O"/><use transform="matrix(0.05,0,0,0.05,14.950000000000001,0)" xlink:href="#D"/><use transform="matrix(0.05,0,0,0.05,18.900000000000002,0)" xlink:href="#v"/><use transform="matrix(0.05,0,0,0.05,28.900000000000002,0)" xlink:href="#C"/><use transform="matrix(0.05,0,0,0.05,37.900000000000006,0)" xlink:href="#u"/><use transform="matrix(0.05,0,0,0.05,42.900000000000006,0)" xlink:href="#M"/></g><path fill="#333" d="M248-111c6-24 9-61-24-58-72 9-57 108-77 169h-31l26-142c3-37-50-30-64-10C52-115 50-51 37 0H6l36-190h30c-1 10-6 24-4 32 13-43 101-52 105 5 13-22 29-41 61-41 90 0 28 129 23 194h-31" id="P"/><path fill="#333" d="M198-190L69 30C53 58 25 83-20 72c4-11-1-27 19-22 33-1 43-29 59-52L20-190h32L79-34l84-156h35" id="Q"/><g id="i"><use transform="matrix(0.05,0,0,0.05,0,0)" xlink:href="#E"/><use transform="matrix(0.05,0,0,0.05,12,0)" xlink:href="#v"/><use transform="matrix(0.05,0,0,0.05,22,0)" xlink:href="#J"/><use transform="matrix(0.05,0,0,0.05,27.950000000000003,0)" xlink:href="#v"/><use transform="matrix(0.05,0,0,0.05,37.95,0)" xlink:href="#P"/><use transform="matrix(0.05,0,0,0.05,52.900000000000006,0)" xlink:href="#y"/><use transform="matrix(0.05,0,0,0.05,62.900000000000006,0)" xlink:href="#u"/><use transform="matrix(0.05,0,0,0.05,67.9,0)" xlink:href="#J"/><use transform="matrix(0.05,0,0,0.05,73.85000000000001,0)" xlink:href="#Q"/></g><path fill="#333" d="M67-162c32-53 139-36 121 50C175-51 163 2 97 4 68 4 52-11 42-31 38 6 28 39 22 75H-9l50-265h29c-1 10 0 20-3 28zm89 36c0-26-10-43-35-43-54 0-67 50-69 103-1 29 14 45 42 46 53 0 62-58 62-106" id="R"/><path fill="#333" d="M67 3c-93-2-31-127-26-193h32L48-50c-3 39 53 32 70 12 30-34 30-101 43-152h32L157 0h-30c1-10 6-24 4-33-14 20-29 37-64 36" id="S"/><g id="j"><use transform="matrix(0.05,0,0,0.05,0,0)" xlink:href="#z"/><use transform="matrix(0.05,0,0,0.05,5,0)" xlink:href="#A"/><use transform="matrix(0.05,0,0,0.05,17.950000000000003,0)" xlink:href="#B"/><use transform="matrix(0.05,0,0,0.05,27.950000000000003,0)" xlink:href="#R"/><use transform="matrix(0.05,0,0,0.05,37.95,0)" xlink:href="#v"/><use transform="matrix(0.05,0,0,0.05,47.95,0)" xlink:href="#J"/><use transform="matrix(0.05,0,0,0.05,53.900000000000006,0)" xlink:href="#v"/><use transform="matrix(0.05,0,0,0.05,63.900000000000006,0)" xlink:href="#P"/><use transform="matrix(0.05,0,0,0.05,78.85000000000001,0)" xlink:href="#y"/><use transform="matrix(0.05,0,0,0.05,88.85000000000001,0)" xlink:href="#u"/><use transform="matrix(0.05,0,0,0.05,93.85000000000001,0)" xlink:href="#J"/><use transform="matrix(0.05,0,0,0.05,99.80000000000001,0)" xlink:href="#S"/></g><path fill="#333" d="M133-28C103 26-5 8 13-77c13-62 24-115 90-117 29-1 46 15 56 35l19-102h32L160 0h-30zM45-64c-2 27 10 43 35 43 54-1 69-50 69-103 0-29-15-46-42-46-53-1-58 58-62 106" id="T"/><path fill="#333" d="M127 0L80-88 50-66 37 0H6l51-261h31L57-100l99-90h39l-93 82L161 0h-34" id="U"/><g id="k"><use transform="matrix(0.05,0,0,0.05,0,0)" xlink:href="#z"/><use transform="matrix(0.05,0,0,0.05,5,0)" xlink:href="#A"/><use transform="matrix(0.05,0,0,0.05,17.950000000000003,0)" xlink:href="#B"/><use transform="matrix(0.05,0,0,0.05,27.950000000000003,0)" xlink:href="#x"/><use transform="matrix(0.05,0,0,0.05,31.900000000000002,0)" xlink:href="#y"/><use transform="matrix(0.05,0,0,0.05,41.900000000000006,0)" xlink:href="#T"/><use transform="matrix(0.05,0,0,0.05,51.900000000000006,0)" xlink:href="#N"/><use transform="matrix(0.05,0,0,0.05,61.900000000000006,0)" xlink:href="#M"/><use transform="matrix(0.05,0,0,0.05,71.9,0)" xlink:href="#C"/><use transform="matrix(0.05,0,0,0.05,80.9,0)" xlink:href="#u"/><use transform="matrix(0.05,0,0,0.05,85.9,0)" xlink:href="#U"/><use transform="matrix(0.05,0,0,0.05,94.9,0)" xlink:href="#D"/></g><path fill="#333" d="M87-220l-18 92h140l-5 28H64L45 0H11l48-248h178l-5 28H87" id="V"/><g id="l"><use transform="matrix(0.05,0,0,0.05,0,0)" xlink:href="#V"/><use transform="matrix(0.05,0,0,0.05,10.950000000000001,0)" xlink:href="#F"/></g><g id="m"><use transform="matrix(0.05,0,0,0.05,0,0)" xlink:href="#E"/><use transform="matrix(0.05,0,0,0.05,12,0)" xlink:href="#M"/><use transform="matrix(0.05,0,0,0.05,22,0)" xlink:href="#P"/><use transform="matrix(0.05,0,0,0.05,36.95,0)" xlink:href="#D"/><use transform="matrix(0.05,0,0,0.05,40.900000000000006,0)" xlink:href="#v"/><use transform="matrix(0.05,0,0,0.05,50.900000000000006,0)" xlink:href="#J"/><use transform="matrix(0.05,0,0,0.05,56.85,0)" xlink:href="#Q"/></g><g id="n"><use transform="matrix(0.05,0,0,0.05,0,0)" xlink:href="#z"/><use transform="matrix(0.05,0,0,0.05,5,0)" xlink:href="#A"/><use transform="matrix(0.05,0,0,0.05,17.950000000000003,0)" xlink:href="#B"/><use transform="matrix(0.05,0,0,0.05,27.950000000000003,0)" xlink:href="#R"/><use transform="matrix(0.05,0,0,0.05,37.95,0)" xlink:href="#M"/><use transform="matrix(0.05,0,0,0.05,47.95,0)" xlink:href="#P"/><use transform="matrix(0.05,0,0,0.05,62.900000000000006,0)" xlink:href="#D"/><use transform="matrix(0.05,0,0,0.05,66.85000000000001,0)" xlink:href="#v"/><use transform="matrix(0.05,0,0,0.05,76.85000000000001,0)" xlink:href="#J"/><use transform="matrix(0.05,0,0,0.05,82.80000000000001,0)" xlink:href="#S"/></g><path fill="#333" d="M247 0h-39l-15-214-24 57L95 0H56L31-248h35L82-30l101-218h33l16 218 101-218h35" id="W"/><g id="o"><use transform="matrix(0.05,0,0,0.05,0,0)" xlink:href="#W"/><use transform="matrix(0.05,0,0,0.05,16.599999999999998,0)" xlink:href="#v"/><use transform="matrix(0.05,0,0,0.05,26.599999999999994,0)" xlink:href="#J"/><use transform="matrix(0.05,0,0,0.05,32.55,0)" xlink:href="#u"/><use transform="matrix(0.05,0,0,0.05,37.55,0)" xlink:href="#M"/><use transform="matrix(0.05,0,0,0.05,47.55,0)" xlink:href="#C"/><use transform="matrix(0.05,0,0,0.05,56.54999999999999,0)" xlink:href="#w"/></g><g id="p"><use transform="matrix(0.05,0,0,0.05,0,0)" xlink:href="#A"/><use transform="matrix(0.05,0,0,0.05,12.950000000000001,0)" xlink:href="#v"/><use transform="matrix(0.05,0,0,0.05,22.950000000000003,0)" xlink:href="#u"/><use transform="matrix(0.05,0,0,0.05,27.950000000000003,0)" xlink:href="#v"/></g><path fill="#333" d="M29-66c0 49 71 55 82 11 13-52 22-111 33-165H93l5-28h85L149-74C151 11 7 37-1-60" id="X"/><g id="q"><use transform="matrix(0.05,0,0,0.05,0,0)" xlink:href="#X"/><use transform="matrix(0.05,0,0,0.05,9,0)" xlink:href="#y"/><use transform="matrix(0.05,0,0,0.05,19,0)" xlink:href="#T"/><use transform="matrix(0.05,0,0,0.05,29,0)" xlink:href="#N"/><use transform="matrix(0.05,0,0,0.05,39,0)" xlink:href="#M"/><use transform="matrix(0.05,0,0,0.05,49,0)" xlink:href="#C"/><use transform="matrix(0.05,0,0,0.05,58,0)" xlink:href="#u"/><use transform="matrix(0.05,0,0,0.05,63,0)" xlink:href="#U"/><use transform="matrix(0.05,0,0,0.05,72,0)" xlink:href="#D"/></g><path d="M27 0v-27h64v-190l-56 39v-29l58-41h29v221h61V0H27" id="Y"/><use transform="matrix(0.05,0,0,0.05,0,0)" xlink:href="#Y" id="r"/><path d="M190 0L58-211 59 0H30v-248h39L202-35l-2-213h31V0h-41" id="Z"/><use transform="matrix(0.05,0,0,0.05,0,0)" xlink:href="#Z" id="s"/></defs></g></svg>